HIERARCHY
ROOT hip
{
	OFFSET 0.000000 0.000000 0.000000 
	CHANNELS 6 Xposition Yposition Zposition Xrotation Zrotation Yrotation
	JOINT abdomen
	{
		OFFSET 0.000000 3.402643 0.000000 
		CHANNELS 3 Xrotation Zrotation Yrotation
		JOINT chest
		{
			OFFSET 0.000000 8.438565 -0.680529 
			CHANNELS 3 Xrotation Zrotation Yrotation
			JOINT neck
			{
				OFFSET 0.000000 10.207942 -0.272212 
				CHANNELS 3 Xrotation Zrotation Yrotation
				JOINT head
				{
					OFFSET 0.000000 3.130431 0.000000 
					CHANNELS 3 Xrotation Zrotation Yrotation
					End Site
					{
						OFFSET 0.000000 3.130435 0.000000 
					}
				}
			}
			JOINT lCollar
			{
				OFFSET 3.470700 6.669187 -0.816635 
				CHANNELS 3 Yrotation Zrotation Xrotation
				JOINT lShldr
				{
					OFFSET 3.198488 0.000000 0.000000 
					CHANNELS 3 Zrotation Yrotation Xrotation
					JOINT lForeArm
					{
						OFFSET 10.139888 0.000000 0.000000 
						CHANNELS 3 Yrotation Zrotation Xrotation
						JOINT lHand
						{
							OFFSET 8.370511 0.000000 0.000000 
							CHANNELS 3 Zrotation Yrotation Xrotation
							End Site
							{
								OFFSET 4.083176 0.000000 0.000000 
							}
						}
					}
				}
			}
			JOINT rCollar
			{
				OFFSET -3.470700 6.669187 -0.816635 
				CHANNELS 3 Yrotation Zrotation Xrotation
				JOINT rShldr
				{
					OFFSET -3.198488 0.000000 0.000000 
					CHANNELS 3 Zrotation Yrotation Xrotation
					JOINT rForeArm
					{
						OFFSET -10.139888 0.000000 0.000000 
						CHANNELS 3 Yrotation Zrotation Xrotation
						JOINT rHand
						{
							OFFSET -8.370511 0.000000 0.000000 
							CHANNELS 3 Zrotation Yrotation Xrotation
							End Site
							{
								OFFSET -4.083176 0.000000 0.000000 
							}
						}
					}
				}
			}
		}
	}
	JOINT lThigh
	{
		OFFSET 5.308129 -1.633274 1.361059 
		CHANNELS 3 Xrotation Zrotation Yrotation
		JOINT lShin
		{
			OFFSET -2.041588 -20.007561 0.000000 
			CHANNELS 3 Xrotation Zrotation Yrotation
			JOINT lFoot
			{
				OFFSET 0.000000 -19.190928 -1.224953 
				CHANNELS 3 Xrotation Yrotation Zrotation
				End Site
				{
					OFFSET 0.000000 -2.449906 4.627600 
				}
			}
		}
	}
	JOINT rThigh
	{
		OFFSET -5.308129 -1.633274 1.361059 
		CHANNELS 3 Xrotation Zrotation Yrotation
		JOINT rShin
		{
			OFFSET 2.041588 -20.007561 0.000000 
			CHANNELS 3 Xrotation Zrotation Yrotation
			JOINT rFoot
			{
				OFFSET 0.000000 -19.190928 -1.224953 
				CHANNELS 3 Xrotation Yrotation Zrotation
				End Site
				{
					OFFSET 0.000000 -2.449906 4.627600 
				}
			}
		}
	}
}
MOTION
Frames: 20
Frame Time: 0.033333
50.309391 60.293339 31.304583 0.693359 -2.460938 -52.578125 20.556639 0.000000 0.000000 -12.548828 3.349610 -0.400391 -9.451019 -0.411092 -1.281108 -6.152345 6.640625 -3.740235 2.000000 -2.000000 0.000000 -26.083986 -38.447266 -20.527344 -76.200493 -1.918035 -0.078403 12.913963 -10.085736 26.878386 -2.000000 2.000000 0.000000 75.029297 -21.015627 -44.130856 61.561649 1.878464 -0.071293 -22.067495 19.847326 16.109406 -18.452133 10.124313 0.653327 32.261066 -3.483257 -7.045749 6.682843 0.035939 9.644999 -11.181170 -6.366961 -7.270463 28.319006 3.495738 -9.606905 3.024781 -0.465010 -8.184733 
50.175117 58.648701 31.312510 0.488281 -3.925776 -53.819069 20.556639 0.000000 0.000000 -11.132813 3.437500 -0.371094 -9.372981 -0.397055 -1.253600 -5.898438 7.011718 -3.828125 2.000000 -2.000000 0.000000 -32.988285 -35.468750 -15.332033 -76.493439 -1.927784 -0.077825 14.130219 -9.708827 24.660732 -2.000000 2.000000 0.000000 75.136719 -19.287107 -38.271484 60.585091 1.878464 -0.071293 -23.789005 18.696264 11.927465 -17.731493 11.238388 0.199985 33.544205 -3.409634 -7.680746 5.858539 -0.117961 10.236232 -10.503653 -5.163566 -7.409335 29.034670 3.478811 -10.423756 3.768306 -0.485025 -8.323354 
49.802742 56.950199 31.377192 0.664063 -5.410157 -54.395451 20.556639 0.000000 0.000000 -10.390625 4.023438 -0.410156 -9.330936 -0.705535 -1.987231 -5.742188 6.181640 -4.334887 2.000000 -2.000000 0.000000 -39.736328 -32.421871 -9.882814 -75.341110 -1.918035 -0.078404 15.753775 -9.636933 24.751368 -2.000000 2.000000 0.000000 76.416016 -18.125002 -33.808594 61.415386 1.888790 -0.080461 -25.514713 17.483620 8.780730 -17.249718 12.895865 0.269015 35.680244 -3.341833 -8.920217 3.961542 -0.365441 11.584273 -9.373617 -3.729888 -7.562103 29.382227 3.446533 -11.136881 2.423110 -0.519823 -9.112933 
49.404331 55.251316 31.512472 0.771484 -7.626953 -55.196606 20.556639 0.000000 0.000000 -8.964844 5.087891 -0.458118 -9.269917 -0.849934 -2.419726 -6.054688 4.960938 -4.375000 2.000000 -2.000000 0.000000 -45.917969 -28.613283 -5.395303 -73.553764 -1.917458 -0.068658 15.539599 -9.796392 25.056496 -2.000000 2.000000 0.000000 77.519531 -17.324219 -29.377907 63.670963 1.907710 -0.069562 -27.847250 15.812631 4.639092 -16.091940 15.066605 1.460419 38.357712 -3.211233 -11.366963 1.539824 -0.427653 12.922716 -7.604025 -2.254623 -7.606866 30.341835 3.429661 -10.660367 0.534151 -0.553096 -9.648764 
49.039516 53.746235 31.775484 0.048828 -10.322265 -55.577923 20.556639 0.000000 0.000000 -6.767577 5.546875 -0.389681 -9.160969 -0.925044 -2.655285 -6.240234 5.439453 -4.774466 2.000000 -2.000000 0.000000 -51.181641 -24.980469 -1.195530 -71.093086 -1.908287 -0.078982 15.278288 -10.757361 24.562334 -2.000000 2.000000 0.000000 77.753906 -17.509768 -25.439455 66.102852 1.908287 -0.079307 -26.699139 15.471146 3.796607 -13.760349 16.543497 2.569510 40.912380 -3.110282 -12.646876 -1.232771 -0.576182 15.098494 -4.643232 -1.696274 -8.449138 31.388422 3.405875 -8.652390 -1.490503 -0.540638 -10.022355 
48.730186 52.432938 31.936945 0.605469 -11.972657 -57.082104 20.556639 0.000000 0.000000 -6.015624 6.621094 -0.428562 -9.132072 -0.825006 -2.581515 -6.406250 4.033203 -4.140625 2.000000 -2.000000 0.000000 -55.664063 -19.775391 1.549432 -69.725899 -1.908287 -0.078982 16.266254 -10.898800 22.249462 -2.000000 2.000000 0.000000 77.578125 -17.021486 -21.083982 68.993217 1.917458 -0.068985 -25.543037 14.415546 2.399782 -12.839397 18.716642 4.345055 43.575397 -3.008592 -14.162216 -3.851416 -0.634028 16.796659 -3.639092 -0.516384 -8.149358 32.733280 3.349329 -7.148743 -3.826260 -0.587850 -11.060637 
48.567097 51.563236 32.019619 1.562500 -12.099554 -58.937702 20.556639 0.000000 0.000000 -6.484375 6.933594 -0.477337 -9.163627 -0.639635 -2.204596 -7.138674 3.730468 -3.603516 2.000000 -2.000000 0.000000 -59.130859 -14.746092 3.408203 -67.792076 -1.897961 -0.069815 15.211908 -12.242860 22.434402 -2.000000 2.000000 0.000000 77.060547 -16.757813 -16.025393 72.665298 1.937533 -0.077577 -24.015579 14.236729 1.556357 -12.860772 20.116051 5.919508 45.007282 -2.893749 -14.886252 -5.462455 -0.646214 17.731447 -3.981668 0.234345 -7.471339 33.298100 3.347000 -5.969614 -5.317051 -0.540200 -11.973446 
48.405762 51.176014 32.041142 1.386719 -13.173828 -60.129181 20.556639 0.000000 0.000000 -5.302734 6.738282 -0.399245 -9.115568 -0.588769 -2.064136 -7.734376 3.818359 -3.496094 2.000000 -2.000000 0.000000 -61.708984 -11.054688 5.183674 -65.282310 -1.897961 -0.069815 14.349751 -13.397623 22.442102 -2.000000 2.000000 0.000000 76.914063 -16.396486 -11.701975 77.098846 1.957030 -0.076423 -23.258419 16.080463 1.376014 -11.120625 21.068037 7.628451 45.342152 -2.875549 -15.800545 -6.146746 -0.592231 18.269381 -2.603413 0.673508 -6.964656 33.035118 3.366843 -5.322315 -6.150414 -0.544834 -12.874810 
48.556656 51.437771 32.478947 -1.533203 -14.101563 -59.182068 20.556639 0.000000 0.000000 -2.705078 5.390625 -0.194395 -8.992318 -1.110395 -3.032392 -8.603517 2.597656 -4.257813 2.000000 -2.000000 0.000000 -64.248047 -10.195313 8.045147 -61.717651 -1.877887 -0.061227 13.340041 -14.768346 21.051474 -2.000000 2.000000 0.000000 76.708984 -16.093752 -11.115988 82.089066 1.966778 -0.075846 -22.534670 21.058456 5.301950 -7.820076 17.737148 6.550742 43.278103 -3.007589 -13.947686 -5.277401 -0.524733 18.006136 0.917477 -2.362739 -9.673366 31.513273 3.435900 -2.761779 -6.044351 -0.527969 -13.468313 
48.862827 51.776669 32.363926 0.087891 -9.746092 -62.052441 20.556639 0.000000 0.000000 -7.128907 3.789063 -0.283203 -9.192919 -0.822200 -2.236266 -7.324219 2.812500 -3.457031 2.000000 -2.000000 0.000000 -65.439453 -6.513672 7.500000 -60.604370 -1.877887 -0.061227 12.042973 -14.744708 21.138433 -2.000000 2.000000 0.000000 74.345703 -15.253906 -7.216797 89.540176 1.996024 -0.074115 -22.850477 19.322689 8.060561 -11.198386 16.274281 6.671468 41.574970 -3.049921 -11.356999 -4.192494 -0.203194 16.516638 -3.934982 -3.192765 -7.932649 30.819141 3.437464 -2.122062 -5.294668 -0.504889 -13.834762 
49.301388 52.598797 32.577232 -1.904297 -5.722657 -62.861332 20.556639 0.000000 0.000000 -9.462891 -0.117188 0.000000 -9.288470 -1.220560 -2.650138 -6.132814 2.939453 -4.140625 2.000000 -2.000000 0.000000 -65.859375 -4.082031 8.681641 -61.337017 -1.888213 -0.070394 10.917784 -13.213673 20.751179 -2.000000 2.000000 0.000000 71.816406 -13.789063 -9.113655 97.499123 2.015521 -0.072961 -20.087593 15.120350 11.404942 -11.293828 10.678166 4.769740 36.016861 -3.292933 -6.622774 -1.282402 -0.041737 14.511306 -5.464919 -7.424292 -8.929080 28.062334 3.554299 0.660068 -3.803700 -0.463059 -13.921642 
49.676659 53.859875 32.819229 -6.064454 -3.095703 -64.785156 20.556639 0.000000 0.000000 -9.384766 -5.898438 0.516575 -9.263890 -1.949621 -3.488438 -4.902344 2.724609 -5.263673 2.000000 -2.000000 0.000000 -64.501953 -0.722656 11.269409 -62.616299 -1.897961 -0.069815 12.370899 -11.615745 19.496183 -2.000000 2.000000 0.000000 66.152344 -13.447266 -8.125000 105.106476 2.044766 -0.071231 -22.627220 11.464207 8.782670 -7.600910 3.726799 3.105761 27.277208 -3.633169 -0.280593 2.262552 0.192840 14.748397 -4.150092 -12.886150 -10.470904 23.328709 3.788865 6.020542 -3.097180 -0.285525 -17.843910 
50.126415 55.265038 32.734280 -5.009766 0.595703 -66.416016 20.556639 0.000000 0.000000 -13.007812 -6.894532 0.838671 -9.431053 -1.951434 -3.369654 -3.095704 2.724609 -5.107422 2.000000 -2.000000 0.000000 -64.335938 1.621094 13.066681 -61.874130 -1.888213 -0.070394 13.426884 -10.889975 20.383245 -2.000000 2.000000 0.000000 62.070313 -11.835938 -8.742236 110.623772 2.063686 -0.060331 -21.060143 10.100202 9.939395 -10.472377 2.839926 3.130600 24.239315 -3.743678 2.555524 5.153566 0.606283 13.888835 -7.828825 -13.214599 -9.440037 20.874718 3.856717 4.852396 -0.519203 -0.493985 -17.828188 
50.696480 56.600479 32.245136 1.171875 7.451172 -67.343750 20.556639 0.000000 0.000000 -22.246096 -3.808594 0.781259 -9.828546 -1.915013 -3.651673 -0.410156 0.791016 -4.609375 2.000000 -2.000000 0.000000 -64.541016 5.107422 13.964845 -63.280849 -1.899116 -0.089306 13.533241 -10.732357 20.816574 -2.000000 2.000000 0.000000 58.925785 -9.853516 -8.810266 114.559052 2.072857 -0.050009 -18.418377 11.605474 14.302798 -21.014032 6.835554 4.252252 26.004208 -3.677179 1.291536 6.957130 0.897664 12.135123 -17.163576 -9.069561 -4.841619 18.990007 3.866235 -0.469908 2.697552 -0.933676 -16.686644 
51.018394 58.365810 32.136654 1.591797 10.302734 -68.640831 20.556639 0.000000 0.000000 -24.804689 -5.009766 1.142578 -9.937956 -1.882935 -3.439244 1.279296 2.656250 -4.941407 2.000000 -2.000000 0.000000 -63.251949 7.031250 14.454323 -66.669258 -1.908287 -0.078982 13.993192 -9.769253 19.063066 -2.000000 2.000000 0.000000 55.117188 -7.451172 -12.120407 118.015823 2.082028 -0.039687 -16.821007 11.651870 14.941975 -22.593218 6.707471 4.488878 22.833324 -3.763126 2.441766 10.573058 0.984603 9.562114 -19.539806 -9.384410 -3.633181 16.748652 3.903749 -1.116043 5.581885 -1.134695 -15.457937 
51.320923 60.095390 32.068951 1.640625 11.240234 -69.843750 20.556639 0.000000 0.000000 -25.214846 -5.097656 1.181640 -9.957447 -1.894049 -3.447443 2.148437 0.849609 -4.414063 2.000000 -2.000000 0.000000 -62.207035 8.398438 13.564453 -70.946815 -1.928361 -0.087570 14.540143 -8.062468 17.363836 -2.000000 2.000000 0.000000 50.927734 -4.042969 -15.332720 120.057060 2.092354 -0.048855 -17.276381 11.742138 14.592574 -23.150074 7.068706 4.911203 21.965080 -3.801933 3.053732 12.987409 0.811020 6.742999 -20.530596 -9.459889 -2.996878 16.250212 3.926105 -1.412816 7.666068 -1.332362 -14.367229 
51.556995 61.739277 32.063160 1.357422 10.781250 -69.599617 20.556639 0.000000 0.000000 -24.072268 -5.185547 1.152344 -9.894784 -2.124357 -3.926239 2.822265 -0.244141 -4.658204 2.000000 -2.000000 0.000000 -59.912109 7.910156 13.339844 -74.588875 -1.936955 -0.067501 15.241424 -6.294524 14.825006 -2.000000 2.000000 0.000000 46.718750 -1.289063 -20.732643 121.306793 2.101526 -0.038533 -17.642120 11.218390 13.392095 -23.262220 7.266188 4.903327 23.681526 -3.780464 0.722499 14.645515 0.857065 6.378366 -20.409620 -9.843629 -3.364584 18.055126 3.866942 -3.469327 8.596292 -1.374760 -14.326076 
51.786793 63.193771 32.008297 0.898438 9.111328 -68.689857 20.556639 0.000000 0.000000 -21.523439 -4.814454 0.957031 -9.760464 -2.431112 -4.650669 3.183594 -2.402344 -4.873047 2.000000 -2.000000 0.000000 -56.933594 5.976563 12.812501 -77.489471 -1.957030 -0.076089 16.010489 -4.632452 12.467333 -2.000000 2.000000 0.000000 42.607422 1.855469 -26.337574 121.609520 2.101525 -0.038533 -18.880533 9.946566 10.648214 -22.707518 7.575218 4.664186 27.333818 -3.647259 -1.968831 16.281513 0.902581 6.670019 -19.418875 -10.163183 -3.755850 21.426924 3.767233 -3.955944 8.395025 -1.286074 -14.109125 
52.079376 64.467682 32.035477 0.107422 7.041015 -67.900391 20.556639 0.000000 0.000000 -18.369141 -4.736328 0.800781 -9.613326 -2.449505 -4.707150 3.554688 -1.992188 -5.039063 2.000000 -2.000000 0.000000 -53.710938 2.822265 11.289063 -78.651566 -1.966778 -0.075511 17.027725 -3.942413 10.534717 -2.000000 2.000000 0.000000 37.197266 5.058594 -33.232418 120.857574 2.101525 -0.038533 -19.442587 7.924173 5.650131 -22.235498 7.519372 3.922236 32.355846 -3.434277 -2.186697 17.284426 0.675403 5.950895 -18.317236 -10.671799 -4.626949 25.923710 3.612329 -4.238859 7.869924 -1.040538 -13.232659 
52.411228 65.595993 32.040508 -0.654297 5.273438 -67.235115 20.556639 0.000000 0.000000 -15.615233 -4.560547 0.653520 -9.493942 -2.517246 -4.894447 4.052734 -1.562500 -5.361595 2.000000 -2.000000 0.000000 -50.263672 -0.849609 8.818337 -78.583206 -1.966778 -0.075511 17.714888 -3.481651 8.454418 -2.000000 2.000000 0.000000 32.871090 8.798827 -38.574223 119.060951 2.102103 -0.048279 -19.147610 7.392434 3.870307 -22.415026 7.516891 3.202778 38.034313 -3.191620 -2.809274 17.586531 0.471076 5.722851 -17.700855 -11.159139 -5.457244 30.773533 3.431222 -5.325246 7.459162 -0.878362 -12.858960 
